<?xml version="1.0" encoding="UTF-8" standalone="no"?>
<!DOCTYPE svg PUBLIC "-//W3C//DTD SVG 1.1//EN" "http://www.w3.org/Graphics/SVG/1.1/DTD/svg11.dtd"><svg width="100%"
    height="100%" viewBox="0 0 168 40" version="1.1" xmlns="http://www.w3.org/2000/svg"
    xmlns:xlink="http://www.w3.org/1999/xlink" xml:space="preserve" xmlns:serif="http://www.serif.com/"
    style="fill-rule:evenodd;clip-rule:evenodd;stroke-linecap:round;stroke-linejoin:round;stroke-miterlimit:1.5;">
    <path d="M31.05,34.017l9.371,-5.162l-0.148,-17.975l-9.223,23.137Z"
        style="fill:#c11c1c;stroke:#c11c1c;stroke-width:0.42px;" />
    <path d="M30.97,34.017l9.433,-23.204l-9.274,10.974l-0.159,12.23Z"
        style="fill:#ad1c1c;stroke:#ad1c1c;stroke-width:0.42px;" />
    <path d="M32.638,5.745l7.703,4.924l-9.132,10.8l1.429,-15.724Z"
        style="fill:#fe5e5e;stroke:#fe5e5e;stroke-width:0.42px;" />
    <path d="M19.852,18.293l12.746,-12.35l-1.543,15.782l-11.203,-3.432Z"
        style="fill:#fd1c1c;stroke:#fd1c1c;stroke-width:0.42px;" />
    <path d="M14.134,5.824l8.551,9.229l-2.831,3.234l-8.738,-2.695l3.018,-9.768Z"
        style="fill:#ad1c1c;stroke:#ad1c1c;stroke-width:0.42px;" />
    <path d="M11.116,15.91l19.92,6l-7.531,7.183l-12.389,-13.183Z"
        style="fill:#a51c1c;stroke:#a51c1c;stroke-width:0.42px;" />
    <path d="M6.431,10.51l7.624,-4.606l-3.018,9.688l-4.606,-5.082Z"
        style="fill:#f71818;stroke:#f71818;stroke-width:0.42px;" />
    <path d="M6.431,10.51l-0,18.345l4.527,-13.183l-4.527,-5.162Z"
        style="fill:#ee1c1c;stroke:#ee1c1c;stroke-width:0.42px;" />
    <path d="M6.431,28.855l9.45,5.4l0.073,-12.806l-4.728,-5.559l-4.795,12.965Z"
        style="fill:#921c1c;stroke:#921c1c;stroke-width:0.42px;" /><text x="44.77px" y="32.103px"
        style="font-family:'Bahnschrift', sans-serif;font-size:33.333px;fill:#211f1b;">MO<tspan
            x="91.612px 111.811px 120.665px 140.945px " y="32.103px 32.103px 32.103px 32.103px ">SIAC</tspan></text>
</svg>